<svg xmlns="http://www.w3.org/2000/svg"
 version="1.1" width="360" height="230">
<rect width="100.00" height="200.00" style="fill:rgb(88,41,0)" />
<rect x="0" y="0"  width="60" height="120" style="fill:rgb(119,181,254)" />
<line x1="60.00" y1="0" x2="60.00" y2="120.00" style="stroke:rgb(255,0,0);stroke-width:2" />
<line x1="0" y1="120.00" x2="60.00" y2="120.00" style="stroke:rgb(255,0,0);stroke-width:2" />
<line x1="0" y1="0" x2="0" y2="120.00" style="stroke:rgb(255,0,0);stroke-width:2" />
<line x1="0" y1="0" x2="60.00" y2="0" style="stroke:rgb(255,0,0);stroke-width:2" />
<rect x="60" y="0"  width="40" height="60" style="fill:rgb(119,181,254)" />
<line x1="100.00" y1="0" x2="100.00" y2="60.00" style="stroke:rgb(255,0,0);stroke-width:2" />
<line x1="60" y1="60.00" x2="100.00" y2="60.00" style="stroke:rgb(255,0,0);stroke-width:2" />
<line x1="60" y1="0" x2="60" y2="60.00" style="stroke:rgb(255,0,0);stroke-width:2" />
<line x1="60" y1="0" x2="100.00" y2="0" style="stroke:rgb(255,0,0);stroke-width:2" />
<rect x="0" y="120"  width="40" height="50" style="fill:rgb(119,181,254)" />
<line x1="40.00" y1="120" x2="40.00" y2="170.00" style="stroke:rgb(255,0,0);stroke-width:2" />
<line x1="0" y1="170.00" x2="40.00" y2="170.00" style="stroke:rgb(255,0,0);stroke-width:2" />
<line x1="0" y1="120" x2="0" y2="170.00" style="stroke:rgb(255,0,0);stroke-width:2" />
<line x1="0" y1="120" x2="40.00" y2="120" style="stroke:rgb(255,0,0);stroke-width:2" />
<rect x="40" y="120"  width="40" height="50" style="fill:rgb(119,181,254)" />
<line x1="80.00" y1="120" x2="80.00" y2="170.00" style="stroke:rgb(255,0,0);stroke-width:2" />
<line x1="40" y1="170.00" x2="80.00" y2="170.00" style="stroke:rgb(255,0,0);stroke-width:2" />
<line x1="40" y1="120" x2="40" y2="170.00" style="stroke:rgb(255,0,0);stroke-width:2" />
<line x1="40" y1="120" x2="80.00" y2="120" style="stroke:rgb(255,0,0);stroke-width:2" />
<rect x="80" y="120"  width="20" height="50" style="fill:rgb(119,181,254)" />
<line x1="100.00" y1="120" x2="100.00" y2="170.00" style="stroke:rgb(255,0,0);stroke-width:2" />
<line x1="80" y1="170.00" x2="100.00" y2="170.00" style="stroke:rgb(255,0,0);stroke-width:2" />
<line x1="80" y1="120" x2="80" y2="170.00" style="stroke:rgb(255,0,0);stroke-width:2" />
<line x1="80" y1="120" x2="100.00" y2="120" style="stroke:rgb(255,0,0);stroke-width:2" />
<rect x="0" y="170"  width="30" height="30" style="fill:rgb(119,181,254)" />
<line x1="30.00" y1="170" x2="30.00" y2="200.00" style="stroke:rgb(255,0,0);stroke-width:2" />
<line x1="0" y1="200.00" x2="30.00" y2="200.00" style="stroke:rgb(255,0,0);stroke-width:2" />
<line x1="0" y1="170" x2="0" y2="200.00" style="stroke:rgb(255,0,0);stroke-width:2" />
<line x1="0" y1="170" x2="30.00" y2="170" style="stroke:rgb(255,0,0);stroke-width:2" />
<rect x="30" y="170"  width="30" height="30" style="fill:rgb(119,181,254)" />
<line x1="60.00" y1="170" x2="60.00" y2="200.00" style="stroke:rgb(255,0,0);stroke-width:2" />
<line x1="30" y1="200.00" x2="60.00" y2="200.00" style="stroke:rgb(255,0,0);stroke-width:2" />
<line x1="30" y1="170" x2="30" y2="200.00" style="stroke:rgb(255,0,0);stroke-width:2" />
<line x1="30" y1="170" x2="60.00" y2="170" style="stroke:rgb(255,0,0);stroke-width:2" />
<rect x="60" y="170"  width="30" height="30" style="fill:rgb(119,181,254)" />
<line x1="90.00" y1="170" x2="90.00" y2="200.00" style="stroke:rgb(255,0,0);stroke-width:2" />
<line x1="60" y1="200.00" x2="90.00" y2="200.00" style="stroke:rgb(255,0,0);stroke-width:2" />
<line x1="60" y1="170" x2="60" y2="200.00" style="stroke:rgb(255,0,0);stroke-width:2" />
<line x1="60" y1="170" x2="90.00" y2="170" style="stroke:rgb(255,0,0);stroke-width:2" />
<rect width="100.00" height="200.00" stroke="#000000" stroke-width="2" fill="transparent" style="fill-opacity: .0;" />
<text x="0" y="220" fill="white">Découpes effectuées sur le panneau d'id 0.9 du Fournisseur d'id 2</text>
</svg>
