<svg xmlns="http://www.w3.org/2000/svg"
 version="1.1" width="400" height="530">
<rect width="500.00" height="500.00" style="fill:rgb(88,41,0)" />
<rect x="0" y="0"  width="50" height="50" stroke="#F00020" stroke-width="2" style="fill:rgb(119,181,254)" />
<rect x="50" y="0"  width="40" height="50" stroke="#F00020" stroke-width="2" style="fill:rgb(119,181,254)" />
<rect x="90" y="0"  width="40" height="50" stroke="#F00020" stroke-width="2" style="fill:rgb(119,181,254)" />
<rect x="130" y="0"  width="40" height="50" stroke="#F00020" stroke-width="2" style="fill:rgb(119,181,254)" />
<rect x="170" y="0"  width="40" height="50" stroke="#F00020" stroke-width="2" style="fill:rgb(119,181,254)" />
<rect x="210" y="0"  width="40" height="50" stroke="#F00020" stroke-width="2" style="fill:rgb(119,181,254)" />
<rect x="250" y="0"  width="40" height="50" stroke="#F00020" stroke-width="2" style="fill:rgb(119,181,254)" />
<rect x="290" y="0"  width="40" height="50" stroke="#F00020" stroke-width="2" style="fill:rgb(119,181,254)" />
<rect x="330" y="0"  width="40" height="50" stroke="#F00020" stroke-width="2" style="fill:rgb(119,181,254)" />
<rect x="370" y="0"  width="40" height="50" stroke="#F00020" stroke-width="2" style="fill:rgb(119,181,254)" />
<rect x="410" y="0"  width="40" height="50" stroke="#F00020" stroke-width="2" style="fill:rgb(119,181,254)" />
<rect x="450" y="0"  width="30" height="30" stroke="#F00020" stroke-width="2" style="fill:rgb(119,181,254)" />
<rect x="480" y="0"  width="20" height="50" stroke="#F00020" stroke-width="2" style="fill:rgb(119,181,254)" />
<rect x="0" y="50"  width="50" height="100" stroke="#F00020" stroke-width="2" style="fill:rgb(119,181,254)" />
<rect x="50" y="50"  width="50" height="100" stroke="#F00020" stroke-width="2" style="fill:rgb(119,181,254)" />
<rect x="100" y="50"  width="50" height="100" stroke="#F00020" stroke-width="2" style="fill:rgb(119,181,254)" />
<rect x="150" y="50"  width="50" height="100" stroke="#F00020" stroke-width="2" style="fill:rgb(119,181,254)" />
<rect x="200" y="50"  width="50" height="100" stroke="#F00020" stroke-width="2" style="fill:rgb(119,181,254)" />
<rect x="250" y="50"  width="40" height="60" stroke="#F00020" stroke-width="2" style="fill:rgb(119,181,254)" />
<rect x="290" y="50"  width="40" height="60" stroke="#F00020" stroke-width="2" style="fill:rgb(119,181,254)" />
<rect x="330" y="50"  width="40" height="60" stroke="#F00020" stroke-width="2" style="fill:rgb(119,181,254)" />
<rect x="370" y="50"  width="40" height="60" stroke="#F00020" stroke-width="2" style="fill:rgb(119,181,254)" />
<rect x="410" y="50"  width="40" height="60" stroke="#F00020" stroke-width="2" style="fill:rgb(119,181,254)" />
<rect x="450" y="50"  width="40" height="60" stroke="#F00020" stroke-width="2" style="fill:rgb(119,181,254)" />
<rect x="0" y="150"  width="40" height="60" stroke="#F00020" stroke-width="2" style="fill:rgb(119,181,254)" />
<rect x="40" y="150"  width="40" height="60" stroke="#F00020" stroke-width="2" style="fill:rgb(119,181,254)" />
<rect x="80" y="150"  width="40" height="60" stroke="#F00020" stroke-width="2" style="fill:rgb(119,181,254)" />
<rect x="120" y="150"  width="40" height="60" stroke="#F00020" stroke-width="2" style="fill:rgb(119,181,254)" />
<rect x="160" y="150"  width="40" height="60" stroke="#F00020" stroke-width="2" style="fill:rgb(119,181,254)" />
<rect x="200" y="150"  width="40" height="60" stroke="#F00020" stroke-width="2" style="fill:rgb(119,181,254)" />
<rect x="240" y="150"  width="40" height="60" stroke="#F00020" stroke-width="2" style="fill:rgb(119,181,254)" />
<rect x="280" y="150"  width="30" height="30" stroke="#F00020" stroke-width="2" style="fill:rgb(119,181,254)" />
<rect x="310" y="150"  width="30" height="30" stroke="#F00020" stroke-width="2" style="fill:rgb(119,181,254)" />
<rect x="340" y="150"  width="30" height="30" stroke="#F00020" stroke-width="2" style="fill:rgb(119,181,254)" />
<rect x="370" y="150"  width="30" height="30" stroke="#F00020" stroke-width="2" style="fill:rgb(119,181,254)" />
<rect x="400" y="150"  width="30" height="30" stroke="#F00020" stroke-width="2" style="fill:rgb(119,181,254)" />
<rect x="430" y="150"  width="30" height="30" stroke="#F00020" stroke-width="2" style="fill:rgb(119,181,254)" />
<rect x="460" y="150"  width="30" height="30" stroke="#F00020" stroke-width="2" style="fill:rgb(119,181,254)" />
<rect x="0" y="210"  width="40" height="150" stroke="#F00020" stroke-width="2" style="fill:rgb(119,181,254)" />
<rect x="40" y="210"  width="40" height="150" stroke="#F00020" stroke-width="2" style="fill:rgb(119,181,254)" />
<rect x="80" y="210"  width="40" height="150" stroke="#F00020" stroke-width="2" style="fill:rgb(119,181,254)" />
<rect x="120" y="210"  width="30" height="30" stroke="#F00020" stroke-width="2" style="fill:rgb(119,181,254)" />
<rect x="150" y="210"  width="30" height="30" stroke="#F00020" stroke-width="2" style="fill:rgb(119,181,254)" />
<rect x="180" y="210"  width="30" height="30" stroke="#F00020" stroke-width="2" style="fill:rgb(119,181,254)" />
<rect x="210" y="210"  width="30" height="30" stroke="#F00020" stroke-width="2" style="fill:rgb(119,181,254)" />
<rect x="240" y="210"  width="30" height="30" stroke="#F00020" stroke-width="2" style="fill:rgb(119,181,254)" />
<rect x="270" y="210"  width="30" height="30" stroke="#F00020" stroke-width="2" style="fill:rgb(119,181,254)" />
<rect x="300" y="210"  width="30" height="30" stroke="#F00020" stroke-width="2" style="fill:rgb(119,181,254)" />
<rect x="330" y="210"  width="30" height="30" stroke="#F00020" stroke-width="2" style="fill:rgb(119,181,254)" />
<rect x="360" y="210"  width="30" height="30" stroke="#F00020" stroke-width="2" style="fill:rgb(119,181,254)" />
<rect x="390" y="210"  width="30" height="30" stroke="#F00020" stroke-width="2" style="fill:rgb(119,181,254)" />
<rect x="420" y="210"  width="30" height="30" stroke="#F00020" stroke-width="2" style="fill:rgb(119,181,254)" />
<rect x="450" y="210"  width="30" height="30" stroke="#F00020" stroke-width="2" style="fill:rgb(119,181,254)" />
<rect x="480" y="210"  width="20" height="50" stroke="#F00020" stroke-width="2" style="fill:rgb(119,181,254)" />
<rect x="0" y="360"  width="20" height="50" stroke="#F00020" stroke-width="2" style="fill:rgb(119,181,254)" />
<rect x="20" y="360"  width="20" height="50" stroke="#F00020" stroke-width="2" style="fill:rgb(119,181,254)" />
<rect x="40" y="360"  width="20" height="50" stroke="#F00020" stroke-width="2" style="fill:rgb(119,181,254)" />
<rect x="60" y="360"  width="20" height="50" stroke="#F00020" stroke-width="2" style="fill:rgb(119,181,254)" />
<rect x="80" y="360"  width="20" height="50" stroke="#F00020" stroke-width="2" style="fill:rgb(119,181,254)" />
<rect x="100" y="360"  width="20" height="50" stroke="#F00020" stroke-width="2" style="fill:rgb(119,181,254)" />
<rect x="120" y="360"  width="20" height="50" stroke="#F00020" stroke-width="2" style="fill:rgb(119,181,254)" />
<rect x="140" y="360"  width="20" height="50" stroke="#F00020" stroke-width="2" style="fill:rgb(119,181,254)" />
<rect x="160" y="360"  width="15" height="30" stroke="#F00020" stroke-width="2" style="fill:rgb(119,181,254)" />
<rect x="175" y="360"  width="15" height="30" stroke="#F00020" stroke-width="2" style="fill:rgb(119,181,254)" />
<rect x="190" y="360"  width="15" height="30" stroke="#F00020" stroke-width="2" style="fill:rgb(119,181,254)" />
<rect x="205" y="360"  width="15" height="30" stroke="#F00020" stroke-width="2" style="fill:rgb(119,181,254)" />
<rect x="220" y="360"  width="15" height="30" stroke="#F00020" stroke-width="2" style="fill:rgb(119,181,254)" />
<rect x="235" y="360"  width="15" height="30" stroke="#F00020" stroke-width="2" style="fill:rgb(119,181,254)" />
<rect x="250" y="360"  width="15" height="30" stroke="#F00020" stroke-width="2" style="fill:rgb(119,181,254)" />
<rect x="265" y="360"  width="15" height="30" stroke="#F00020" stroke-width="2" style="fill:rgb(119,181,254)" />
<rect x="280" y="360"  width="15" height="30" stroke="#F00020" stroke-width="2" style="fill:rgb(119,181,254)" />
<rect x="295" y="360"  width="15" height="30" stroke="#F00020" stroke-width="2" style="fill:rgb(119,181,254)" />
<rect x="310" y="360"  width="15" height="30" stroke="#F00020" stroke-width="2" style="fill:rgb(119,181,254)" />
<rect x="325" y="360"  width="15" height="30" stroke="#F00020" stroke-width="2" style="fill:rgb(119,181,254)" />
<rect x="340" y="360"  width="15" height="30" stroke="#F00020" stroke-width="2" style="fill:rgb(119,181,254)" />
<rect x="355" y="360"  width="15" height="30" stroke="#F00020" stroke-width="2" style="fill:rgb(119,181,254)" />
<rect x="370" y="360"  width="15" height="30" stroke="#F00020" stroke-width="2" style="fill:rgb(119,181,254)" />
<rect x="385" y="360"  width="15" height="30" stroke="#F00020" stroke-width="2" style="fill:rgb(119,181,254)" />
<rect x="400" y="360"  width="15" height="30" stroke="#F00020" stroke-width="2" style="fill:rgb(119,181,254)" />
<rect x="415" y="360"  width="15" height="30" stroke="#F00020" stroke-width="2" style="fill:rgb(119,181,254)" />
<rect x="430" y="360"  width="15" height="30" stroke="#F00020" stroke-width="2" style="fill:rgb(119,181,254)" />
<rect x="445" y="360"  width="15" height="30" stroke="#F00020" stroke-width="2" style="fill:rgb(119,181,254)" />
<rect x="460" y="360"  width="15" height="30" stroke="#F00020" stroke-width="2" style="fill:rgb(119,181,254)" />
<rect x="475" y="360"  width="15" height="30" stroke="#F00020" stroke-width="2" style="fill:rgb(119,181,254)" />
<rect width="500.00" height="500.00" stroke="#000000" stroke-width="2" fill="transparent" style="fill-opacity: .0;" />
<text x="0" y="520" fill="green">Cutouts made on the panel of id 6.0 from the Supplier of id 2</text>
</svg>
