<svg xmlns="http://www.w3.org/2000/svg"
 version="1.1" width="400" height="230">
<rect width="200.00" height="200.00" style="fill:rgb(88,41,0)" />
<rect x="0" y="0"  width="100" height="100" stroke="#F00020" stroke-width="2" style="fill:rgb(119,181,254)" />
<rect x="100" y="0"  width="60" height="70" stroke="#F00020" stroke-width="2" style="fill:rgb(119,181,254)" />
<rect x="160" y="0"  width="40" height="60" stroke="#F00020" stroke-width="2" style="fill:rgb(119,181,254)" />
<rect x="0" y="100"  width="60" height="70" stroke="#F00020" stroke-width="2" style="fill:rgb(119,181,254)" />
<rect x="60" y="100"  width="60" height="70" stroke="#F00020" stroke-width="2" style="fill:rgb(119,181,254)" />
<rect x="120" y="100"  width="60" height="70" stroke="#F00020" stroke-width="2" style="fill:rgb(119,181,254)" />
<rect x="180" y="100"  width="20" height="50" stroke="#F00020" stroke-width="2" style="fill:rgb(119,181,254)" />
<rect x="0" y="170"  width="15" height="30" stroke="#F00020" stroke-width="2" style="fill:rgb(119,181,254)" />
<rect x="15" y="170"  width="15" height="30" stroke="#F00020" stroke-width="2" style="fill:rgb(119,181,254)" />
<rect x="30" y="170"  width="15" height="30" stroke="#F00020" stroke-width="2" style="fill:rgb(119,181,254)" />
<rect x="45" y="170"  width="15" height="30" stroke="#F00020" stroke-width="2" style="fill:rgb(119,181,254)" />
<rect x="60" y="170"  width="15" height="30" stroke="#F00020" stroke-width="2" style="fill:rgb(119,181,254)" />
<rect x="75" y="170"  width="15" height="30" stroke="#F00020" stroke-width="2" style="fill:rgb(119,181,254)" />
<rect x="90" y="170"  width="15" height="30" stroke="#F00020" stroke-width="2" style="fill:rgb(119,181,254)" />
<rect x="105" y="170"  width="15" height="30" stroke="#F00020" stroke-width="2" style="fill:rgb(119,181,254)" />
<rect x="120" y="170"  width="15" height="30" stroke="#F00020" stroke-width="2" style="fill:rgb(119,181,254)" />
<rect x="135" y="170"  width="15" height="30" stroke="#F00020" stroke-width="2" style="fill:rgb(119,181,254)" />
<rect x="150" y="170"  width="15" height="30" stroke="#F00020" stroke-width="2" style="fill:rgb(119,181,254)" />
<rect x="165" y="170"  width="15" height="30" stroke="#F00020" stroke-width="2" style="fill:rgb(119,181,254)" />
<rect x="180" y="170"  width="15" height="30" stroke="#F00020" stroke-width="2" style="fill:rgb(119,181,254)" />
<rect width="200.00" height="200.00" stroke="#000000" stroke-width="2" fill="transparent" style="fill-opacity: .0;" />
<text x="0" y="220" fill="green">Cutouts made on the panel of id 4.1 from the Supplier of id 2</text>
</svg>
