<svg xmlns="http://www.w3.org/2000/svg"
 version="1.1" width="360" height="230">
<rect width="100.00" height="200.00" style="fill:rgb(88,41,0)" />
<rect x="0" y="0"  width="60" height="70" style="fill:rgb(119,181,254)" />
<line x1="60.00" y1="0" x2="60.00" y2="70.00" style="stroke:rgb(255,0,0);stroke-width:2" />
<line x1="0" y1="70.00" x2="60.00" y2="70.00" style="stroke:rgb(255,0,0);stroke-width:2" />
<line x1="0" y1="0" x2="0" y2="70.00" style="stroke:rgb(255,0,0);stroke-width:2" />
<line x1="0" y1="0" x2="60.00" y2="0" style="stroke:rgb(255,0,0);stroke-width:2" />
<rect x="60" y="0"  width="40" height="60" style="fill:rgb(119,181,254)" />
<line x1="100.00" y1="0" x2="100.00" y2="60.00" style="stroke:rgb(255,0,0);stroke-width:2" />
<line x1="60" y1="60.00" x2="100.00" y2="60.00" style="stroke:rgb(255,0,0);stroke-width:2" />
<line x1="60" y1="0" x2="60" y2="60.00" style="stroke:rgb(255,0,0);stroke-width:2" />
<line x1="60" y1="0" x2="100.00" y2="0" style="stroke:rgb(255,0,0);stroke-width:2" />
<rect x="0" y="70"  width="60" height="120" style="fill:rgb(119,181,254)" />
<line x1="60.00" y1="70" x2="60.00" y2="190.00" style="stroke:rgb(255,0,0);stroke-width:2" />
<line x1="0" y1="190.00" x2="60.00" y2="190.00" style="stroke:rgb(255,0,0);stroke-width:2" />
<line x1="0" y1="70" x2="0" y2="190.00" style="stroke:rgb(255,0,0);stroke-width:2" />
<line x1="0" y1="70" x2="60.00" y2="70" style="stroke:rgb(255,0,0);stroke-width:2" />
<rect x="60" y="70"  width="40" height="60" style="fill:rgb(119,181,254)" />
<line x1="100.00" y1="70" x2="100.00" y2="130.00" style="stroke:rgb(255,0,0);stroke-width:2" />
<line x1="60" y1="130.00" x2="100.00" y2="130.00" style="stroke:rgb(255,0,0);stroke-width:2" />
<line x1="60" y1="70" x2="60" y2="130.00" style="stroke:rgb(255,0,0);stroke-width:2" />
<line x1="60" y1="70" x2="100.00" y2="70" style="stroke:rgb(255,0,0);stroke-width:2" />
<rect width="100.00" height="200.00" stroke="#000000" stroke-width="2" fill="transparent" style="fill-opacity: .0;" />
<text x="0" y="220" fill="white">Découpes effectuées sur le panneau d'id 0.7 du Fournisseur d'id 2</text>
</svg>
