<svg xmlns="http://www.w3.org/2000/svg"
 version="1.1" width="400" height="330">
<rect width="300.00" height="300.00" style="fill:rgb(88,41,0)" />
<rect x="0" y="0"  width="60" height="70" stroke="#F00020" stroke-width="2" style="fill:rgb(119,181,254)" />
<rect x="60" y="0"  width="60" height="70" stroke="#F00020" stroke-width="2" style="fill:rgb(119,181,254)" />
<rect x="120" y="0"  width="60" height="70" stroke="#F00020" stroke-width="2" style="fill:rgb(119,181,254)" />
<rect x="180" y="0"  width="60" height="70" stroke="#F00020" stroke-width="2" style="fill:rgb(119,181,254)" />
<rect x="240" y="0"  width="60" height="70" stroke="#F00020" stroke-width="2" style="fill:rgb(119,181,254)" />
<rect x="0" y="70"  width="60" height="70" stroke="#F00020" stroke-width="2" style="fill:rgb(119,181,254)" />
<rect x="60" y="70"  width="50" height="50" stroke="#F00020" stroke-width="2" style="fill:rgb(119,181,254)" />
<rect x="110" y="70"  width="50" height="50" stroke="#F00020" stroke-width="2" style="fill:rgb(119,181,254)" />
<rect x="160" y="70"  width="50" height="50" stroke="#F00020" stroke-width="2" style="fill:rgb(119,181,254)" />
<rect x="210" y="70"  width="50" height="50" stroke="#F00020" stroke-width="2" style="fill:rgb(119,181,254)" />
<rect x="260" y="70"  width="40" height="60" stroke="#F00020" stroke-width="2" style="fill:rgb(119,181,254)" />
<rect x="0" y="140"  width="60" height="120" stroke="#F00020" stroke-width="2" style="fill:rgb(119,181,254)" />
<rect x="60" y="140"  width="60" height="120" stroke="#F00020" stroke-width="2" style="fill:rgb(119,181,254)" />
<rect x="120" y="140"  width="60" height="120" stroke="#F00020" stroke-width="2" style="fill:rgb(119,181,254)" />
<rect x="180" y="140"  width="50" height="50" stroke="#F00020" stroke-width="2" style="fill:rgb(119,181,254)" />
<rect x="230" y="140"  width="50" height="50" stroke="#F00020" stroke-width="2" style="fill:rgb(119,181,254)" />
<rect x="280" y="140"  width="20" height="50" stroke="#F00020" stroke-width="2" style="fill:rgb(119,181,254)" />
<rect x="0" y="260"  width="15" height="30" stroke="#F00020" stroke-width="2" style="fill:rgb(119,181,254)" />
<rect x="15" y="260"  width="15" height="30" stroke="#F00020" stroke-width="2" style="fill:rgb(119,181,254)" />
<rect x="30" y="260"  width="15" height="30" stroke="#F00020" stroke-width="2" style="fill:rgb(119,181,254)" />
<rect x="45" y="260"  width="15" height="30" stroke="#F00020" stroke-width="2" style="fill:rgb(119,181,254)" />
<rect x="60" y="260"  width="15" height="30" stroke="#F00020" stroke-width="2" style="fill:rgb(119,181,254)" />
<rect width="300.00" height="300.00" stroke="#000000" stroke-width="2" fill="transparent" style="fill-opacity: .0;" />
<text x="0" y="320" fill="green">Cutouts made on the panel of id 5.0 from the Supplier of id 2</text>
</svg>
