<svg xmlns="http://www.w3.org/2000/svg"
 version="1.1" width="360" height="230">
<rect width="100.00" height="200.00" style="fill:rgb(88,41,0)" />
<rect x="0" y="0"  width="15" height="30" style="fill:rgb(119,181,254)" />
<line x1="15.00" y1="0" x2="15.00" y2="30.00" style="stroke:rgb(255,0,0);stroke-width:2" />
<line x1="0" y1="30.00" x2="15.00" y2="30.00" style="stroke:rgb(255,0,0);stroke-width:2" />
<line x1="0" y1="0" x2="0" y2="30.00" style="stroke:rgb(255,0,0);stroke-width:2" />
<line x1="0" y1="0" x2="15.00" y2="0" style="stroke:rgb(255,0,0);stroke-width:2" />
<rect x="15" y="0"  width="15" height="30" style="fill:rgb(119,181,254)" />
<line x1="30.00" y1="0" x2="30.00" y2="30.00" style="stroke:rgb(255,0,0);stroke-width:2" />
<line x1="15" y1="30.00" x2="30.00" y2="30.00" style="stroke:rgb(255,0,0);stroke-width:2" />
<line x1="15" y1="0" x2="15" y2="30.00" style="stroke:rgb(255,0,0);stroke-width:2" />
<line x1="15" y1="0" x2="30.00" y2="0" style="stroke:rgb(255,0,0);stroke-width:2" />
<rect x="30" y="0"  width="15" height="30" style="fill:rgb(119,181,254)" />
<line x1="45.00" y1="0" x2="45.00" y2="30.00" style="stroke:rgb(255,0,0);stroke-width:2" />
<line x1="30" y1="30.00" x2="45.00" y2="30.00" style="stroke:rgb(255,0,0);stroke-width:2" />
<line x1="30" y1="0" x2="30" y2="30.00" style="stroke:rgb(255,0,0);stroke-width:2" />
<line x1="30" y1="0" x2="45.00" y2="0" style="stroke:rgb(255,0,0);stroke-width:2" />
<rect x="45" y="0"  width="15" height="30" style="fill:rgb(119,181,254)" />
<line x1="60.00" y1="0" x2="60.00" y2="30.00" style="stroke:rgb(255,0,0);stroke-width:2" />
<line x1="45" y1="30.00" x2="60.00" y2="30.00" style="stroke:rgb(255,0,0);stroke-width:2" />
<line x1="45" y1="0" x2="45" y2="30.00" style="stroke:rgb(255,0,0);stroke-width:2" />
<line x1="45" y1="0" x2="60.00" y2="0" style="stroke:rgb(255,0,0);stroke-width:2" />
<rect x="60" y="0"  width="15" height="30" style="fill:rgb(119,181,254)" />
<line x1="75.00" y1="0" x2="75.00" y2="30.00" style="stroke:rgb(255,0,0);stroke-width:2" />
<line x1="60" y1="30.00" x2="75.00" y2="30.00" style="stroke:rgb(255,0,0);stroke-width:2" />
<line x1="60" y1="0" x2="60" y2="30.00" style="stroke:rgb(255,0,0);stroke-width:2" />
<line x1="60" y1="0" x2="75.00" y2="0" style="stroke:rgb(255,0,0);stroke-width:2" />
<rect x="75" y="0"  width="15" height="30" style="fill:rgb(119,181,254)" />
<line x1="90.00" y1="0" x2="90.00" y2="30.00" style="stroke:rgb(255,0,0);stroke-width:2" />
<line x1="75" y1="30.00" x2="90.00" y2="30.00" style="stroke:rgb(255,0,0);stroke-width:2" />
<line x1="75" y1="0" x2="75" y2="30.00" style="stroke:rgb(255,0,0);stroke-width:2" />
<line x1="75" y1="0" x2="90.00" y2="0" style="stroke:rgb(255,0,0);stroke-width:2" />
<rect x="0" y="30"  width="15" height="30" style="fill:rgb(119,181,254)" />
<line x1="15.00" y1="30" x2="15.00" y2="60.00" style="stroke:rgb(255,0,0);stroke-width:2" />
<line x1="0" y1="60.00" x2="15.00" y2="60.00" style="stroke:rgb(255,0,0);stroke-width:2" />
<line x1="0" y1="30" x2="0" y2="60.00" style="stroke:rgb(255,0,0);stroke-width:2" />
<line x1="0" y1="30" x2="15.00" y2="30" style="stroke:rgb(255,0,0);stroke-width:2" />
<rect x="15" y="30"  width="15" height="30" style="fill:rgb(119,181,254)" />
<line x1="30.00" y1="30" x2="30.00" y2="60.00" style="stroke:rgb(255,0,0);stroke-width:2" />
<line x1="15" y1="60.00" x2="30.00" y2="60.00" style="stroke:rgb(255,0,0);stroke-width:2" />
<line x1="15" y1="30" x2="15" y2="60.00" style="stroke:rgb(255,0,0);stroke-width:2" />
<line x1="15" y1="30" x2="30.00" y2="30" style="stroke:rgb(255,0,0);stroke-width:2" />
<rect x="30" y="30"  width="15" height="30" style="fill:rgb(119,181,254)" />
<line x1="45.00" y1="30" x2="45.00" y2="60.00" style="stroke:rgb(255,0,0);stroke-width:2" />
<line x1="30" y1="60.00" x2="45.00" y2="60.00" style="stroke:rgb(255,0,0);stroke-width:2" />
<line x1="30" y1="30" x2="30" y2="60.00" style="stroke:rgb(255,0,0);stroke-width:2" />
<line x1="30" y1="30" x2="45.00" y2="30" style="stroke:rgb(255,0,0);stroke-width:2" />
<rect x="45" y="30"  width="15" height="30" style="fill:rgb(119,181,254)" />
<line x1="60.00" y1="30" x2="60.00" y2="60.00" style="stroke:rgb(255,0,0);stroke-width:2" />
<line x1="45" y1="60.00" x2="60.00" y2="60.00" style="stroke:rgb(255,0,0);stroke-width:2" />
<line x1="45" y1="30" x2="45" y2="60.00" style="stroke:rgb(255,0,0);stroke-width:2" />
<line x1="45" y1="30" x2="60.00" y2="30" style="stroke:rgb(255,0,0);stroke-width:2" />
<rect x="60" y="30"  width="15" height="30" style="fill:rgb(119,181,254)" />
<line x1="75.00" y1="30" x2="75.00" y2="60.00" style="stroke:rgb(255,0,0);stroke-width:2" />
<line x1="60" y1="60.00" x2="75.00" y2="60.00" style="stroke:rgb(255,0,0);stroke-width:2" />
<line x1="60" y1="30" x2="60" y2="60.00" style="stroke:rgb(255,0,0);stroke-width:2" />
<line x1="60" y1="30" x2="75.00" y2="30" style="stroke:rgb(255,0,0);stroke-width:2" />
<rect x="75" y="30"  width="15" height="30" style="fill:rgb(119,181,254)" />
<line x1="90.00" y1="30" x2="90.00" y2="60.00" style="stroke:rgb(255,0,0);stroke-width:2" />
<line x1="75" y1="60.00" x2="90.00" y2="60.00" style="stroke:rgb(255,0,0);stroke-width:2" />
<line x1="75" y1="30" x2="75" y2="60.00" style="stroke:rgb(255,0,0);stroke-width:2" />
<line x1="75" y1="30" x2="90.00" y2="30" style="stroke:rgb(255,0,0);stroke-width:2" />
<rect x="0" y="60"  width="15" height="30" style="fill:rgb(119,181,254)" />
<line x1="15.00" y1="60" x2="15.00" y2="90.00" style="stroke:rgb(255,0,0);stroke-width:2" />
<line x1="0" y1="90.00" x2="15.00" y2="90.00" style="stroke:rgb(255,0,0);stroke-width:2" />
<line x1="0" y1="60" x2="0" y2="90.00" style="stroke:rgb(255,0,0);stroke-width:2" />
<line x1="0" y1="60" x2="15.00" y2="60" style="stroke:rgb(255,0,0);stroke-width:2" />
<rect x="15" y="60"  width="15" height="30" style="fill:rgb(119,181,254)" />
<line x1="30.00" y1="60" x2="30.00" y2="90.00" style="stroke:rgb(255,0,0);stroke-width:2" />
<line x1="15" y1="90.00" x2="30.00" y2="90.00" style="stroke:rgb(255,0,0);stroke-width:2" />
<line x1="15" y1="60" x2="15" y2="90.00" style="stroke:rgb(255,0,0);stroke-width:2" />
<line x1="15" y1="60" x2="30.00" y2="60" style="stroke:rgb(255,0,0);stroke-width:2" />
<rect x="30" y="60"  width="15" height="30" style="fill:rgb(119,181,254)" />
<line x1="45.00" y1="60" x2="45.00" y2="90.00" style="stroke:rgb(255,0,0);stroke-width:2" />
<line x1="30" y1="90.00" x2="45.00" y2="90.00" style="stroke:rgb(255,0,0);stroke-width:2" />
<line x1="30" y1="60" x2="30" y2="90.00" style="stroke:rgb(255,0,0);stroke-width:2" />
<line x1="30" y1="60" x2="45.00" y2="60" style="stroke:rgb(255,0,0);stroke-width:2" />
<rect x="45" y="60"  width="15" height="30" style="fill:rgb(119,181,254)" />
<line x1="60.00" y1="60" x2="60.00" y2="90.00" style="stroke:rgb(255,0,0);stroke-width:2" />
<line x1="45" y1="90.00" x2="60.00" y2="90.00" style="stroke:rgb(255,0,0);stroke-width:2" />
<line x1="45" y1="60" x2="45" y2="90.00" style="stroke:rgb(255,0,0);stroke-width:2" />
<line x1="45" y1="60" x2="60.00" y2="60" style="stroke:rgb(255,0,0);stroke-width:2" />
<rect x="60" y="60"  width="15" height="30" style="fill:rgb(119,181,254)" />
<line x1="75.00" y1="60" x2="75.00" y2="90.00" style="stroke:rgb(255,0,0);stroke-width:2" />
<line x1="60" y1="90.00" x2="75.00" y2="90.00" style="stroke:rgb(255,0,0);stroke-width:2" />
<line x1="60" y1="60" x2="60" y2="90.00" style="stroke:rgb(255,0,0);stroke-width:2" />
<line x1="60" y1="60" x2="75.00" y2="60" style="stroke:rgb(255,0,0);stroke-width:2" />
<rect x="75" y="60"  width="15" height="30" style="fill:rgb(119,181,254)" />
<line x1="90.00" y1="60" x2="90.00" y2="90.00" style="stroke:rgb(255,0,0);stroke-width:2" />
<line x1="75" y1="90.00" x2="90.00" y2="90.00" style="stroke:rgb(255,0,0);stroke-width:2" />
<line x1="75" y1="60" x2="75" y2="90.00" style="stroke:rgb(255,0,0);stroke-width:2" />
<line x1="75" y1="60" x2="90.00" y2="60" style="stroke:rgb(255,0,0);stroke-width:2" />
<rect x="0" y="90"  width="15" height="30" style="fill:rgb(119,181,254)" />
<line x1="15.00" y1="90" x2="15.00" y2="120.00" style="stroke:rgb(255,0,0);stroke-width:2" />
<line x1="0" y1="120.00" x2="15.00" y2="120.00" style="stroke:rgb(255,0,0);stroke-width:2" />
<line x1="0" y1="90" x2="0" y2="120.00" style="stroke:rgb(255,0,0);stroke-width:2" />
<line x1="0" y1="90" x2="15.00" y2="90" style="stroke:rgb(255,0,0);stroke-width:2" />
<rect x="15" y="90"  width="15" height="30" style="fill:rgb(119,181,254)" />
<line x1="30.00" y1="90" x2="30.00" y2="120.00" style="stroke:rgb(255,0,0);stroke-width:2" />
<line x1="15" y1="120.00" x2="30.00" y2="120.00" style="stroke:rgb(255,0,0);stroke-width:2" />
<line x1="15" y1="90" x2="15" y2="120.00" style="stroke:rgb(255,0,0);stroke-width:2" />
<line x1="15" y1="90" x2="30.00" y2="90" style="stroke:rgb(255,0,0);stroke-width:2" />
<rect x="30" y="90"  width="15" height="30" style="fill:rgb(119,181,254)" />
<line x1="45.00" y1="90" x2="45.00" y2="120.00" style="stroke:rgb(255,0,0);stroke-width:2" />
<line x1="30" y1="120.00" x2="45.00" y2="120.00" style="stroke:rgb(255,0,0);stroke-width:2" />
<line x1="30" y1="90" x2="30" y2="120.00" style="stroke:rgb(255,0,0);stroke-width:2" />
<line x1="30" y1="90" x2="45.00" y2="90" style="stroke:rgb(255,0,0);stroke-width:2" />
<rect x="45" y="90"  width="15" height="30" style="fill:rgb(119,181,254)" />
<line x1="60.00" y1="90" x2="60.00" y2="120.00" style="stroke:rgb(255,0,0);stroke-width:2" />
<line x1="45" y1="120.00" x2="60.00" y2="120.00" style="stroke:rgb(255,0,0);stroke-width:2" />
<line x1="45" y1="90" x2="45" y2="120.00" style="stroke:rgb(255,0,0);stroke-width:2" />
<line x1="45" y1="90" x2="60.00" y2="90" style="stroke:rgb(255,0,0);stroke-width:2" />
<rect x="60" y="90"  width="15" height="30" style="fill:rgb(119,181,254)" />
<line x1="75.00" y1="90" x2="75.00" y2="120.00" style="stroke:rgb(255,0,0);stroke-width:2" />
<line x1="60" y1="120.00" x2="75.00" y2="120.00" style="stroke:rgb(255,0,0);stroke-width:2" />
<line x1="60" y1="90" x2="60" y2="120.00" style="stroke:rgb(255,0,0);stroke-width:2" />
<line x1="60" y1="90" x2="75.00" y2="90" style="stroke:rgb(255,0,0);stroke-width:2" />
<rect x="75" y="90"  width="15" height="30" style="fill:rgb(119,181,254)" />
<line x1="90.00" y1="90" x2="90.00" y2="120.00" style="stroke:rgb(255,0,0);stroke-width:2" />
<line x1="75" y1="120.00" x2="90.00" y2="120.00" style="stroke:rgb(255,0,0);stroke-width:2" />
<line x1="75" y1="90" x2="75" y2="120.00" style="stroke:rgb(255,0,0);stroke-width:2" />
<line x1="75" y1="90" x2="90.00" y2="90" style="stroke:rgb(255,0,0);stroke-width:2" />
<rect x="0" y="120"  width="15" height="30" style="fill:rgb(119,181,254)" />
<line x1="15.00" y1="120" x2="15.00" y2="150.00" style="stroke:rgb(255,0,0);stroke-width:2" />
<line x1="0" y1="150.00" x2="15.00" y2="150.00" style="stroke:rgb(255,0,0);stroke-width:2" />
<line x1="0" y1="120" x2="0" y2="150.00" style="stroke:rgb(255,0,0);stroke-width:2" />
<line x1="0" y1="120" x2="15.00" y2="120" style="stroke:rgb(255,0,0);stroke-width:2" />
<rect x="15" y="120"  width="15" height="30" style="fill:rgb(119,181,254)" />
<line x1="30.00" y1="120" x2="30.00" y2="150.00" style="stroke:rgb(255,0,0);stroke-width:2" />
<line x1="15" y1="150.00" x2="30.00" y2="150.00" style="stroke:rgb(255,0,0);stroke-width:2" />
<line x1="15" y1="120" x2="15" y2="150.00" style="stroke:rgb(255,0,0);stroke-width:2" />
<line x1="15" y1="120" x2="30.00" y2="120" style="stroke:rgb(255,0,0);stroke-width:2" />
<rect x="30" y="120"  width="15" height="30" style="fill:rgb(119,181,254)" />
<line x1="45.00" y1="120" x2="45.00" y2="150.00" style="stroke:rgb(255,0,0);stroke-width:2" />
<line x1="30" y1="150.00" x2="45.00" y2="150.00" style="stroke:rgb(255,0,0);stroke-width:2" />
<line x1="30" y1="120" x2="30" y2="150.00" style="stroke:rgb(255,0,0);stroke-width:2" />
<line x1="30" y1="120" x2="45.00" y2="120" style="stroke:rgb(255,0,0);stroke-width:2" />
<rect x="45" y="120"  width="15" height="30" style="fill:rgb(119,181,254)" />
<line x1="60.00" y1="120" x2="60.00" y2="150.00" style="stroke:rgb(255,0,0);stroke-width:2" />
<line x1="45" y1="150.00" x2="60.00" y2="150.00" style="stroke:rgb(255,0,0);stroke-width:2" />
<line x1="45" y1="120" x2="45" y2="150.00" style="stroke:rgb(255,0,0);stroke-width:2" />
<line x1="45" y1="120" x2="60.00" y2="120" style="stroke:rgb(255,0,0);stroke-width:2" />
<rect x="60" y="120"  width="15" height="30" style="fill:rgb(119,181,254)" />
<line x1="75.00" y1="120" x2="75.00" y2="150.00" style="stroke:rgb(255,0,0);stroke-width:2" />
<line x1="60" y1="150.00" x2="75.00" y2="150.00" style="stroke:rgb(255,0,0);stroke-width:2" />
<line x1="60" y1="120" x2="60" y2="150.00" style="stroke:rgb(255,0,0);stroke-width:2" />
<line x1="60" y1="120" x2="75.00" y2="120" style="stroke:rgb(255,0,0);stroke-width:2" />
<rect x="75" y="120"  width="15" height="30" style="fill:rgb(119,181,254)" />
<line x1="90.00" y1="120" x2="90.00" y2="150.00" style="stroke:rgb(255,0,0);stroke-width:2" />
<line x1="75" y1="150.00" x2="90.00" y2="150.00" style="stroke:rgb(255,0,0);stroke-width:2" />
<line x1="75" y1="120" x2="75" y2="150.00" style="stroke:rgb(255,0,0);stroke-width:2" />
<line x1="75" y1="120" x2="90.00" y2="120" style="stroke:rgb(255,0,0);stroke-width:2" />
<rect x="0" y="150"  width="15" height="30" style="fill:rgb(119,181,254)" />
<line x1="15.00" y1="150" x2="15.00" y2="180.00" style="stroke:rgb(255,0,0);stroke-width:2" />
<line x1="0" y1="180.00" x2="15.00" y2="180.00" style="stroke:rgb(255,0,0);stroke-width:2" />
<line x1="0" y1="150" x2="0" y2="180.00" style="stroke:rgb(255,0,0);stroke-width:2" />
<line x1="0" y1="150" x2="15.00" y2="150" style="stroke:rgb(255,0,0);stroke-width:2" />
<rect x="15" y="150"  width="15" height="30" style="fill:rgb(119,181,254)" />
<line x1="30.00" y1="150" x2="30.00" y2="180.00" style="stroke:rgb(255,0,0);stroke-width:2" />
<line x1="15" y1="180.00" x2="30.00" y2="180.00" style="stroke:rgb(255,0,0);stroke-width:2" />
<line x1="15" y1="150" x2="15" y2="180.00" style="stroke:rgb(255,0,0);stroke-width:2" />
<line x1="15" y1="150" x2="30.00" y2="150" style="stroke:rgb(255,0,0);stroke-width:2" />
<rect x="30" y="150"  width="15" height="30" style="fill:rgb(119,181,254)" />
<line x1="45.00" y1="150" x2="45.00" y2="180.00" style="stroke:rgb(255,0,0);stroke-width:2" />
<line x1="30" y1="180.00" x2="45.00" y2="180.00" style="stroke:rgb(255,0,0);stroke-width:2" />
<line x1="30" y1="150" x2="30" y2="180.00" style="stroke:rgb(255,0,0);stroke-width:2" />
<line x1="30" y1="150" x2="45.00" y2="150" style="stroke:rgb(255,0,0);stroke-width:2" />
<rect x="45" y="150"  width="15" height="30" style="fill:rgb(119,181,254)" />
<line x1="60.00" y1="150" x2="60.00" y2="180.00" style="stroke:rgb(255,0,0);stroke-width:2" />
<line x1="45" y1="180.00" x2="60.00" y2="180.00" style="stroke:rgb(255,0,0);stroke-width:2" />
<line x1="45" y1="150" x2="45" y2="180.00" style="stroke:rgb(255,0,0);stroke-width:2" />
<line x1="45" y1="150" x2="60.00" y2="150" style="stroke:rgb(255,0,0);stroke-width:2" />
<rect x="60" y="150"  width="15" height="30" style="fill:rgb(119,181,254)" />
<line x1="75.00" y1="150" x2="75.00" y2="180.00" style="stroke:rgb(255,0,0);stroke-width:2" />
<line x1="60" y1="180.00" x2="75.00" y2="180.00" style="stroke:rgb(255,0,0);stroke-width:2" />
<line x1="60" y1="150" x2="60" y2="180.00" style="stroke:rgb(255,0,0);stroke-width:2" />
<line x1="60" y1="150" x2="75.00" y2="150" style="stroke:rgb(255,0,0);stroke-width:2" />
<rect width="100.00" height="200.00" stroke="#000000" stroke-width="2" fill="transparent" style="fill-opacity: .0;" />
<text x="0" y="220" fill="white">Découpes effectuées sur le panel d'id 0.16 du Fournisseur d'id 2</text>
</svg>
