<svg xmlns="http://www.w3.org/2000/svg"
 version="1.1" width="360" height="230">
<rect width="100.00" height="200.00" style="fill:rgb(88,41,0)" />
<rect x="0" y="0"  width="30" height="30" style="fill:rgb(119,181,254)" />
<line x1="30.00" y1="0" x2="30.00" y2="30.00" style="stroke:rgb(255,0,0);stroke-width:2" />
<line x1="0" y1="30.00" x2="30.00" y2="30.00" style="stroke:rgb(255,0,0);stroke-width:2" />
<line x1="0" y1="0" x2="0" y2="30.00" style="stroke:rgb(255,0,0);stroke-width:2" />
<line x1="0" y1="0" x2="30.00" y2="0" style="stroke:rgb(255,0,0);stroke-width:2" />
<rect x="30" y="0"  width="30" height="30" style="fill:rgb(119,181,254)" />
<line x1="60.00" y1="0" x2="60.00" y2="30.00" style="stroke:rgb(255,0,0);stroke-width:2" />
<line x1="30" y1="30.00" x2="60.00" y2="30.00" style="stroke:rgb(255,0,0);stroke-width:2" />
<line x1="30" y1="0" x2="30" y2="30.00" style="stroke:rgb(255,0,0);stroke-width:2" />
<line x1="30" y1="0" x2="60.00" y2="0" style="stroke:rgb(255,0,0);stroke-width:2" />
<rect x="60" y="0"  width="30" height="30" style="fill:rgb(119,181,254)" />
<line x1="90.00" y1="0" x2="90.00" y2="30.00" style="stroke:rgb(255,0,0);stroke-width:2" />
<line x1="60" y1="30.00" x2="90.00" y2="30.00" style="stroke:rgb(255,0,0);stroke-width:2" />
<line x1="60" y1="0" x2="60" y2="30.00" style="stroke:rgb(255,0,0);stroke-width:2" />
<line x1="60" y1="0" x2="90.00" y2="0" style="stroke:rgb(255,0,0);stroke-width:2" />
<rect x="0" y="30"  width="30" height="30" style="fill:rgb(119,181,254)" />
<line x1="30.00" y1="30" x2="30.00" y2="60.00" style="stroke:rgb(255,0,0);stroke-width:2" />
<line x1="0" y1="60.00" x2="30.00" y2="60.00" style="stroke:rgb(255,0,0);stroke-width:2" />
<line x1="0" y1="30" x2="0" y2="60.00" style="stroke:rgb(255,0,0);stroke-width:2" />
<line x1="0" y1="30" x2="30.00" y2="30" style="stroke:rgb(255,0,0);stroke-width:2" />
<rect x="30" y="30"  width="30" height="30" style="fill:rgb(119,181,254)" />
<line x1="60.00" y1="30" x2="60.00" y2="60.00" style="stroke:rgb(255,0,0);stroke-width:2" />
<line x1="30" y1="60.00" x2="60.00" y2="60.00" style="stroke:rgb(255,0,0);stroke-width:2" />
<line x1="30" y1="30" x2="30" y2="60.00" style="stroke:rgb(255,0,0);stroke-width:2" />
<line x1="30" y1="30" x2="60.00" y2="30" style="stroke:rgb(255,0,0);stroke-width:2" />
<rect x="60" y="30"  width="30" height="30" style="fill:rgb(119,181,254)" />
<line x1="90.00" y1="30" x2="90.00" y2="60.00" style="stroke:rgb(255,0,0);stroke-width:2" />
<line x1="60" y1="60.00" x2="90.00" y2="60.00" style="stroke:rgb(255,0,0);stroke-width:2" />
<line x1="60" y1="30" x2="60" y2="60.00" style="stroke:rgb(255,0,0);stroke-width:2" />
<line x1="60" y1="30" x2="90.00" y2="30" style="stroke:rgb(255,0,0);stroke-width:2" />
<rect x="0" y="60"  width="30" height="30" style="fill:rgb(119,181,254)" />
<line x1="30.00" y1="60" x2="30.00" y2="90.00" style="stroke:rgb(255,0,0);stroke-width:2" />
<line x1="0" y1="90.00" x2="30.00" y2="90.00" style="stroke:rgb(255,0,0);stroke-width:2" />
<line x1="0" y1="60" x2="0" y2="90.00" style="stroke:rgb(255,0,0);stroke-width:2" />
<line x1="0" y1="60" x2="30.00" y2="60" style="stroke:rgb(255,0,0);stroke-width:2" />
<rect x="30" y="60"  width="30" height="30" style="fill:rgb(119,181,254)" />
<line x1="60.00" y1="60" x2="60.00" y2="90.00" style="stroke:rgb(255,0,0);stroke-width:2" />
<line x1="30" y1="90.00" x2="60.00" y2="90.00" style="stroke:rgb(255,0,0);stroke-width:2" />
<line x1="30" y1="60" x2="30" y2="90.00" style="stroke:rgb(255,0,0);stroke-width:2" />
<line x1="30" y1="60" x2="60.00" y2="60" style="stroke:rgb(255,0,0);stroke-width:2" />
<rect x="60" y="60"  width="30" height="30" style="fill:rgb(119,181,254)" />
<line x1="90.00" y1="60" x2="90.00" y2="90.00" style="stroke:rgb(255,0,0);stroke-width:2" />
<line x1="60" y1="90.00" x2="90.00" y2="90.00" style="stroke:rgb(255,0,0);stroke-width:2" />
<line x1="60" y1="60" x2="60" y2="90.00" style="stroke:rgb(255,0,0);stroke-width:2" />
<line x1="60" y1="60" x2="90.00" y2="60" style="stroke:rgb(255,0,0);stroke-width:2" />
<rect x="0" y="90"  width="20" height="50" style="fill:rgb(119,181,254)" />
<line x1="20.00" y1="90" x2="20.00" y2="140.00" style="stroke:rgb(255,0,0);stroke-width:2" />
<line x1="0" y1="140.00" x2="20.00" y2="140.00" style="stroke:rgb(255,0,0);stroke-width:2" />
<line x1="0" y1="90" x2="0" y2="140.00" style="stroke:rgb(255,0,0);stroke-width:2" />
<line x1="0" y1="90" x2="20.00" y2="90" style="stroke:rgb(255,0,0);stroke-width:2" />
<rect x="20" y="90"  width="20" height="50" style="fill:rgb(119,181,254)" />
<line x1="40.00" y1="90" x2="40.00" y2="140.00" style="stroke:rgb(255,0,0);stroke-width:2" />
<line x1="20" y1="140.00" x2="40.00" y2="140.00" style="stroke:rgb(255,0,0);stroke-width:2" />
<line x1="20" y1="90" x2="20" y2="140.00" style="stroke:rgb(255,0,0);stroke-width:2" />
<line x1="20" y1="90" x2="40.00" y2="90" style="stroke:rgb(255,0,0);stroke-width:2" />
<rect x="40" y="90"  width="20" height="50" style="fill:rgb(119,181,254)" />
<line x1="60.00" y1="90" x2="60.00" y2="140.00" style="stroke:rgb(255,0,0);stroke-width:2" />
<line x1="40" y1="140.00" x2="60.00" y2="140.00" style="stroke:rgb(255,0,0);stroke-width:2" />
<line x1="40" y1="90" x2="40" y2="140.00" style="stroke:rgb(255,0,0);stroke-width:2" />
<line x1="40" y1="90" x2="60.00" y2="90" style="stroke:rgb(255,0,0);stroke-width:2" />
<rect x="60" y="90"  width="20" height="50" style="fill:rgb(119,181,254)" />
<line x1="80.00" y1="90" x2="80.00" y2="140.00" style="stroke:rgb(255,0,0);stroke-width:2" />
<line x1="60" y1="140.00" x2="80.00" y2="140.00" style="stroke:rgb(255,0,0);stroke-width:2" />
<line x1="60" y1="90" x2="60" y2="140.00" style="stroke:rgb(255,0,0);stroke-width:2" />
<line x1="60" y1="90" x2="80.00" y2="90" style="stroke:rgb(255,0,0);stroke-width:2" />
<rect x="80" y="90"  width="20" height="50" style="fill:rgb(119,181,254)" />
<line x1="100.00" y1="90" x2="100.00" y2="140.00" style="stroke:rgb(255,0,0);stroke-width:2" />
<line x1="80" y1="140.00" x2="100.00" y2="140.00" style="stroke:rgb(255,0,0);stroke-width:2" />
<line x1="80" y1="90" x2="80" y2="140.00" style="stroke:rgb(255,0,0);stroke-width:2" />
<line x1="80" y1="90" x2="100.00" y2="90" style="stroke:rgb(255,0,0);stroke-width:2" />
<rect x="0" y="140"  width="20" height="50" style="fill:rgb(119,181,254)" />
<line x1="20.00" y1="140" x2="20.00" y2="190.00" style="stroke:rgb(255,0,0);stroke-width:2" />
<line x1="0" y1="190.00" x2="20.00" y2="190.00" style="stroke:rgb(255,0,0);stroke-width:2" />
<line x1="0" y1="140" x2="0" y2="190.00" style="stroke:rgb(255,0,0);stroke-width:2" />
<line x1="0" y1="140" x2="20.00" y2="140" style="stroke:rgb(255,0,0);stroke-width:2" />
<rect x="20" y="140"  width="15" height="30" style="fill:rgb(119,181,254)" />
<line x1="35.00" y1="140" x2="35.00" y2="170.00" style="stroke:rgb(255,0,0);stroke-width:2" />
<line x1="20" y1="170.00" x2="35.00" y2="170.00" style="stroke:rgb(255,0,0);stroke-width:2" />
<line x1="20" y1="140" x2="20" y2="170.00" style="stroke:rgb(255,0,0);stroke-width:2" />
<line x1="20" y1="140" x2="35.00" y2="140" style="stroke:rgb(255,0,0);stroke-width:2" />
<rect x="35" y="140"  width="15" height="30" style="fill:rgb(119,181,254)" />
<line x1="50.00" y1="140" x2="50.00" y2="170.00" style="stroke:rgb(255,0,0);stroke-width:2" />
<line x1="35" y1="170.00" x2="50.00" y2="170.00" style="stroke:rgb(255,0,0);stroke-width:2" />
<line x1="35" y1="140" x2="35" y2="170.00" style="stroke:rgb(255,0,0);stroke-width:2" />
<line x1="35" y1="140" x2="50.00" y2="140" style="stroke:rgb(255,0,0);stroke-width:2" />
<rect x="50" y="140"  width="15" height="30" style="fill:rgb(119,181,254)" />
<line x1="65.00" y1="140" x2="65.00" y2="170.00" style="stroke:rgb(255,0,0);stroke-width:2" />
<line x1="50" y1="170.00" x2="65.00" y2="170.00" style="stroke:rgb(255,0,0);stroke-width:2" />
<line x1="50" y1="140" x2="50" y2="170.00" style="stroke:rgb(255,0,0);stroke-width:2" />
<line x1="50" y1="140" x2="65.00" y2="140" style="stroke:rgb(255,0,0);stroke-width:2" />
<rect x="65" y="140"  width="15" height="30" style="fill:rgb(119,181,254)" />
<line x1="80.00" y1="140" x2="80.00" y2="170.00" style="stroke:rgb(255,0,0);stroke-width:2" />
<line x1="65" y1="170.00" x2="80.00" y2="170.00" style="stroke:rgb(255,0,0);stroke-width:2" />
<line x1="65" y1="140" x2="65" y2="170.00" style="stroke:rgb(255,0,0);stroke-width:2" />
<line x1="65" y1="140" x2="80.00" y2="140" style="stroke:rgb(255,0,0);stroke-width:2" />
<rect x="80" y="140"  width="15" height="30" style="fill:rgb(119,181,254)" />
<line x1="95.00" y1="140" x2="95.00" y2="170.00" style="stroke:rgb(255,0,0);stroke-width:2" />
<line x1="80" y1="170.00" x2="95.00" y2="170.00" style="stroke:rgb(255,0,0);stroke-width:2" />
<line x1="80" y1="140" x2="80" y2="170.00" style="stroke:rgb(255,0,0);stroke-width:2" />
<line x1="80" y1="140" x2="95.00" y2="140" style="stroke:rgb(255,0,0);stroke-width:2" />
<rect width="100.00" height="200.00" stroke="#000000" stroke-width="2" fill="transparent" style="fill-opacity: .0;" />
<text x="0" y="220" fill="white">Découpes effectuées sur le panel d'id 0.14 du Fournisseur d'id 2</text>
</svg>
